<svg width="20" height="20" viewBox="0 0 20 20" version="1.1" xmlns="http://www.w3.org/2000/svg" xmlns:xlink="http://www.w3.org/1999/xlink">
<title>instagram_color</title>
<desc>Created using Figma</desc>
<g id="Canvas" transform="translate(-785 -3190)">
<g id="instagram_color">
<g id="Canvas">
<g id="instagram color">
<g id="Group">
<g id="x37  stroke">
<g id="Instagram 3">
<g id="Instagram">
<g id="Vector">
<use xlink:href="#path0_fill" transform="translate(785 3190)" fill="url(#paint0_radial)"/>
</g>
</g>
</g>
</g>
</g>
</g>
</g>
</g>
</g>
<defs>
<radialGradient id="paint0_radial" cx="0.5" cy="0.5" r="0.5" gradientUnits="userSpaceOnUse" gradientTransform="matrix(51.0188 0 0 -51.0188 -22.5248 45.55)">
<stop offset="0" stop-color="#FFB140"/>
<stop offset="0.2559" stop-color="#FF5445"/>
<stop offset="0.599" stop-color="#FC2B82"/>
<stop offset="1" stop-color="#8E40B7"/>
</radialGradient>
<path id="path0_fill" d="M 16.5176 4.66454C 16.5176 5.31949 15.9744 5.86261 15.3195 5.86261C 14.6646 5.86261 14.1214 5.31949 14.1214 4.66454C 14.1214 4.00958 14.6646 3.46646 15.3195 3.46646C 15.9744 3.46646 16.5176 3.99361 16.5176 4.66454ZM 9.984 13.3227C 8.14694 13.3227 6.66133 11.8371 6.66133 10C 6.66133 8.16294 8.14694 6.66133 9.984 6.66133C 11.8211 6.66133 13.3067 8.14694 13.3067 9.984C 13.3067 11.8211 11.8211 13.3227 9.984 13.3227ZM 9.984 4.85623C 7.15656 4.85623 4.85623 7.15656 4.85623 9.984C 4.85623 12.8115 7.15656 15.1118 9.984 15.1118C 12.8115 15.1118 15.1118 12.8115 15.1118 9.984C 15.1118 7.15656 12.8115 4.85623 9.984 4.85623ZM 9.984 1.80511C 12.6518 1.80511 12.9712 1.82109 14.0256 1.86901C 15 1.91693 15.5272 2.07668 15.8786 2.22045C 16.3418 2.39617 16.6773 2.61981 17.0288 2.97124C 17.3802 3.32268 17.5878 3.65814 17.7796 4.12141C 17.9233 4.47284 18.0831 5 18.131 5.97444C 18.1789 7.02878 18.1949 7.34822 18.1949 10.016C 18.1949 12.6837 18.1789 13.0032 18.131 14.0575C 18.0831 15.0319 17.9233 15.5591 17.7796 15.9106C 17.6038 16.3738 17.3802 16.7093 17.0288 17.0607C 16.6773 17.4122 16.3418 17.6198 15.8786 17.8115C 15.5272 17.9553 15 18.115 14.0256 18.1629C 12.9712 18.2109 12.6518 18.2268 9.984 18.2268C 7.31628 18.2268 6.99678 18.2109 5.9425 18.1629C 4.96805 18.115 4.44089 17.9553 4.08946 17.8115C 3.6262 17.6358 3.29073 17.4122 2.93929 17.0607C 2.58786 16.7093 2.38019 16.3738 2.1885 15.9106C 2.04473 15.5591 1.88498 15.0319 1.83706 14.0575C 1.78914 13.0032 1.77316 12.6837 1.77316 10.016C 1.77316 7.34822 1.78914 7.02878 1.83706 5.97444C 1.88498 5 2.04473 4.47284 2.1885 4.12141C 2.36422 3.65814 2.58786 3.32268 2.93929 2.97124C 3.29073 2.61981 3.6262 2.41214 4.08946 2.22045C 4.44089 2.07668 4.96805 1.91693 5.9425 1.86901C 7.01278 1.82109 7.31628 1.80511 9.984 1.80511ZM 9.984 -1.86163e-16C 7.26839 -1.86163e-16 6.93289 0.0159745 5.86261 0.0638978C 4.80831 0.111821 4.08946 0.28754 3.45048 0.527157C 2.79553 0.78275 2.23642 1.13418 1.67732 1.67732C 1.11821 2.22045 0.78275 2.79553 0.527157 3.45048C 0.28754 4.08946 0.111821 4.80831 0.0638978 5.87861C 0.0159744 6.94889 -7.43223e-25 7.28433 -7.43223e-25 10C -7.43223e-25 12.7157 0.0159744 13.0511 0.0638978 14.1214C 0.111821 15.1917 0.28754 15.9106 0.527157 16.5495C 0.78275 17.2045 1.11821 17.7636 1.67732 18.3227C 2.23642 18.8818 2.79553 19.2173 3.45048 19.4728C 4.08946 19.7124 4.80831 19.8882 5.87861 19.9361C 6.94889 19.984 7.28433 20 10 20C 12.7157 20 13.0511 19.984 14.1214 19.9361C 15.1917 19.8882 15.9106 19.7124 16.5495 19.4728C 17.2045 19.2173 17.7636 18.8818 18.3227 18.3227C 18.8818 17.7636 19.2173 17.2045 19.4728 16.5495C 19.7124 15.9106 19.8882 15.1917 19.9361 14.1214C 19.984 13.0511 20 12.7157 20 10C 20 7.28433 19.984 6.94889 19.9361 5.87861C 19.8882 4.80831 19.7124 4.08946 19.4728 3.45048C 19.2173 2.79553 18.8818 2.23642 18.3227 1.67732C 17.7636 1.11821 17.2045 0.78275 16.5495 0.527157C 15.9106 0.28754 15.1917 0.111821 14.1214 0.0638978C 13.0352 0.0159745 12.6997 -1.86163e-16 9.984 -1.86163e-16Z"/>
</defs>
</svg>
